<svg xmlns="http://www.w3.org/2000/svg" width="430" height="430" style="width:100%;height:100%;transform:translate3d(0,0,0);content-visibility:visible" viewBox="0 0 430 430"><defs><clipPath id="i"><path d="M0 0h430v430H0z"/></clipPath><clipPath id="o"><path d="M0 0h430v430H0z"/></clipPath><clipPath id="m"><path d="M0 0h430v430H0z"/></clipPath><clipPath id="j"><path d="M0 0h430v430H0z"/></clipPath><filter id="a" width="100%" height="100%" x="0%" y="0%" filterUnits="objectBoundingBox"><feComponentTransfer in="SourceGraphic"><feFuncA tableValues="1.0 0.0" type="table"/></feComponentTransfer></filter><filter id="c" width="100%" height="100%" x="0%" y="0%" filterUnits="objectBoundingBox"><feComponentTransfer in="SourceGraphic"><feFuncA tableValues="1.0 0.0" type="table"/></feComponentTransfer></filter><filter id="e" width="100%" height="100%" x="0%" y="0%" filterUnits="objectBoundingBox"><feComponentTransfer in="SourceGraphic"><feFuncA tableValues="1.0 0.0" type="table"/></feComponentTransfer></filter><filter id="g" width="100%" height="100%" x="0%" y="0%" filterUnits="objectBoundingBox"><feComponentTransfer in="SourceGraphic"><feFuncA tableValues="1.0 0.0" type="table"/></feComponentTransfer></filter><path id="b" style="display:none"/><path id="d" fill="#FFF" d="M-95-47.5c0-11.046 8.954-20 20-20H75c11.046 0 20 8.954 20 20v55c0 11.046-8.954 20-20 20H30v40l-60-40h-45c-11.046 0-20-8.954-20-20z" style="display:block" transform="translate(280 137.5)"/><path id="f" style="display:none"/><path id="h" style="display:none"/><mask id="p" mask-type="alpha" maskUnits="userSpaceOnUse"><g filter="url(#a)"><path fill="#fff" d="M0 0h430v430H0z" opacity="0"/><use xmlns:ns1="http://www.w3.org/1999/xlink" ns1:href="#b"/></g></mask><mask id="n" mask-type="alpha" maskUnits="userSpaceOnUse"><g filter="url(#c)"><path fill="#fff" d="M0 0h430v430H0z" opacity="0"/><use xmlns:ns2="http://www.w3.org/1999/xlink" ns2:href="#d"/></g></mask><mask id="l" mask-type="alpha" maskUnits="userSpaceOnUse"><g filter="url(#e)"><path fill="#fff" d="M0 0h430v430H0z" opacity="0"/><use xmlns:ns3="http://www.w3.org/1999/xlink" ns3:href="#f"/></g></mask><mask id="k" mask-type="alpha" maskUnits="userSpaceOnUse"><g filter="url(#g)"><path fill="#fff" d="M0 0h430v430H0z" opacity="0"/><use xmlns:ns4="http://www.w3.org/1999/xlink" ns4:href="#h"/></g></mask></defs><g clip-path="url(#i)"><g clip-path="url(#j)" style="display:none"><path fill="none" class="primary" style="display:none"/><path fill="none" class="primary" style="display:none"/><g mask="url(#k)" style="display:none"><path fill="none" class="secondary"/></g><path fill="none" class="secondary" style="display:none"/><g mask="url(#l)" style="display:none"><path fill="none" class="secondary"/></g><path fill="none" class="secondary" style="display:none"/></g><g clip-path="url(#m)" style="display:block"><path fill="none" stroke="#FFF" stroke-linejoin="round" stroke-width="12" d="M-20 12.5c-24.853 0-45 20.147-45 45v15H65v-15c0-24.853-20.147-45-45-45zm50-55c0 16.569-13.431 30-30 30s-30-13.431-30-30 13.431-30 30-30 30 13.431 30 30z" class="primary" style="display:block" transform="translate(130 302.5)"/><path fill="none" stroke="#FFF" stroke-linejoin="round" stroke-width="12" d="M-20 12.5c-24.853 0-45 20.147-45 45v15H65v-15c0-24.853-20.147-45-45-45zm50-55c0 16.569-13.431 30-30 30s-30-13.431-30-30 13.431-30 30-30 30 13.431 30 30z" class="primary" style="display:block" transform="translate(300 302.5)"/><g mask="url(#n)" style="display:block"><path fill="none" stroke="#FFF" stroke-linecap="round" stroke-linejoin="round" stroke-width="12" d="M55 65c0-11.046 8.954-20 20-20h150c11.046 0 20 8.954 20 20v60c0 11.046-8.954 20-20 20h-45l-60 40v-40H75c-11.046 0-20-8.954-20-20z" class="secondary"/></g><path fill="none" stroke="#FFF" stroke-linecap="round" stroke-linejoin="round" stroke-width="12" d="M-95-47.5c0-11.046 8.954-20 20-20H75c11.046 0 20 8.954 20 20v55c0 11.046-8.954 20-20 20H30v40l-60-40h-45c-11.046 0-20-8.954-20-20z" class="secondary" style="display:block" transform="translate(280 137.5)"/></g><g clip-path="url(#o)" style="display:none"><path fill="none" class="primary" style="display:none"/><path fill="none" class="primary" style="display:none"/><g mask="url(#p)" style="display:none"><path fill="none" class="secondary"/></g><path fill="none" class="secondary" style="display:none"/></g></g></svg>